<mxfile host="65bd71144e">
    <diagram id="Q9lgVFQ91r3VEU0-MLSn" name="Page-1">
        <mxGraphModel dx="14222" dy="4464" grid="1" gridSize="10" guides="1" tooltips="1" connect="1" arrows="1" fold="1" page="1" pageScale="1" pageWidth="850" pageHeight="1100" math="0" shadow="0">
            <root>
                <mxCell id="0"/>
                <mxCell id="1" parent="0"/>
                <mxCell id="2" value="&lt;br style=&quot;font-size: 27px&quot;&gt;&lt;br style=&quot;font-size: 27px&quot;&gt;WAIT:&lt;br style=&quot;font-size: 27px&quot;&gt;&lt;blockquote style=&quot;margin: 0px 0px 0px 40px ; border: none ; padding: 0px ; font-size: 27px&quot;&gt;&lt;font color=&quot;#990000&quot;&gt;&lt;font style=&quot;font-size: 27px&quot;&gt;STATE:&amp;nbsp;&lt;/font&gt;&lt;span style=&quot;font-size: 27px&quot;&gt;WAIT&lt;/span&gt;&lt;font style=&quot;font-size: 27px&quot;&gt;&lt;br style=&quot;font-size: 27px&quot;&gt;X_MODIFY: +1&lt;br style=&quot;font-size: 27px&quot;&gt;X_COUNT: 9&lt;/font&gt;&lt;/font&gt;&lt;/blockquote&gt;&lt;br style=&quot;font-size: 27px&quot;&gt;WRITE_1D_LOOP:&lt;br style=&quot;font-size: 27px&quot;&gt;&#9;&lt;blockquote style=&quot;margin: 0px 0px 0px 40px ; border: none ; padding: 0px ; font-size: 27px&quot;&gt;&lt;font color=&quot;#0000ff&quot; style=&quot;font-size: 27px&quot;&gt;START_IDX: 0&lt;br style=&quot;font-size: 27px&quot;&gt;STATE: GENERATE&lt;br style=&quot;font-size: 27px&quot;&gt;X_MODIFY: +1&lt;br style=&quot;font-size: 27px&quot;&gt;X_COUNT: X*Y&lt;/font&gt;&lt;/blockquote&gt;&lt;blockquote style=&quot;margin: 0px 0px 0px 40px ; border: none ; padding: 0px ; font-size: 27px&quot;&gt;&lt;span style=&quot;color: rgb(0 , 0 , 255) ; font-size: 27px&quot;&gt;Y_MODIFY: -X*Y&lt;/span&gt;&lt;/blockquote&gt;&lt;span style=&quot;color: rgb(0 , 0 , 255) ; font-size: 27px&quot;&gt;&amp;nbsp; &amp;nbsp; &amp;nbsp; Y_COUNT: C-1&lt;/span&gt;&lt;font color=&quot;#0000ff&quot; style=&quot;font-size: 27px&quot;&gt;&lt;br style=&quot;font-size: 27px&quot;&gt;&lt;/font&gt;&lt;span style=&quot;font-size: 27px&quot;&gt;&#9;&lt;/span&gt;" style="text;html=1;strokeColor=default;fillColor=none;spacing=5;spacingTop=-20;whiteSpace=wrap;overflow=hidden;rounded=0;sketch=0;fontSize=27;fontStyle=1" parent="1" vertex="1">
                    <mxGeometry x="-10455.68" y="-2086.15" width="270.68" height="548" as="geometry"/>
                </mxCell>
                <mxCell id="3" value="" style="shape=curlyBracket;whiteSpace=wrap;html=1;rounded=1;flipH=1;sketch=0;strokeColor=default;fillColor=#FFD966;fontSize=25;strokeWidth=4;" parent="1" vertex="1">
                    <mxGeometry x="-10845" y="-2049.15" width="20" height="211.84" as="geometry"/>
                </mxCell>
                <mxCell id="4" value="Repeat for each weight tile" style="text;html=1;strokeColor=none;fillColor=none;align=center;verticalAlign=middle;whiteSpace=wrap;rounded=0;sketch=0;fontSize=31;fontStyle=1" parent="1" vertex="1">
                    <mxGeometry x="-10819" y="-1947.31" width="189" height="17.31" as="geometry"/>
                </mxCell>
                <mxCell id="5" value="" style="rounded=1;whiteSpace=wrap;html=1;fillColor=#d5e8d4;opacity=40;strokeColor=#000000;glass=0;strokeWidth=5;" parent="1" vertex="1">
                    <mxGeometry x="-11790" y="-1789.15" width="1325" height="230" as="geometry"/>
                </mxCell>
                <mxCell id="6" value="" style="rounded=1;whiteSpace=wrap;html=1;fillColor=#67AB9F;opacity=40;strokeColor=#000000;glass=0;strokeWidth=5;gradientColor=#E6D0DE;gradientDirection=south;" parent="1" vertex="1">
                    <mxGeometry x="-11790" y="-1558.15" width="1315" height="240" as="geometry"/>
                </mxCell>
                <mxCell id="7" value="" style="whiteSpace=wrap;html=1;aspect=fixed;fillColor=#d5e8d4;strokeColor=#000000;strokeWidth=5;" parent="1" vertex="1">
                    <mxGeometry x="-11448.65" y="-1726.5900000000001" width="82.11" height="82.11" as="geometry"/>
                </mxCell>
                <mxCell id="8" value="L3: Channel Memory" style="text;html=1;strokeColor=none;fillColor=none;align=left;verticalAlign=middle;whiteSpace=wrap;rounded=0;glass=0;fontSize=45;strokeWidth=5;fontStyle=1" parent="1" vertex="1">
                    <mxGeometry x="-11761.24" y="-1739.15" width="270" height="190" as="geometry"/>
                </mxCell>
                <mxCell id="9" value="&lt;font style=&quot;font-size: 33px;&quot;&gt;Weight multipication &amp;amp;&amp;nbsp;partial sum reduction&lt;/font&gt;" style="text;html=1;strokeColor=none;fillColor=none;align=left;verticalAlign=middle;whiteSpace=wrap;rounded=0;glass=0;fontSize=33;strokeWidth=5;fontStyle=1" parent="1" vertex="1">
                    <mxGeometry x="-11775" y="-1490.8400000000001" width="243.49" height="130" as="geometry"/>
                </mxCell>
                <mxCell id="10" value="" style="rounded=1;whiteSpace=wrap;html=1;fillColor=#E6D0DE;opacity=40;strokeColor=#000000;glass=0;strokeWidth=4;rotation=90;" parent="1" vertex="1">
                    <mxGeometry x="-10408.14" y="-1595.5300000000002" width="212.8" height="347.5" as="geometry"/>
                </mxCell>
                <mxCell id="11" value="" style="whiteSpace=wrap;html=1;aspect=fixed;fillColor=#e1d5e7;strokeColor=#9673a6;strokeWidth=3;rotation=90;fontSize=17;horizontal=0;fontStyle=1" parent="1" vertex="1">
                    <mxGeometry x="-10408" y="-1500.8400000000001" width="80" height="80" as="geometry"/>
                </mxCell>
                <mxCell id="12" value="OFmap Memory" style="text;html=1;strokeColor=none;fillColor=none;align=left;verticalAlign=middle;whiteSpace=wrap;rounded=0;glass=0;fontSize=44;strokeWidth=5;fontStyle=1" parent="1" vertex="1">
                    <mxGeometry x="-10311" y="-1500.8400000000001" width="180" height="130" as="geometry"/>
                </mxCell>
                <mxCell id="13" value="" style="group" parent="1" vertex="1" connectable="0">
                    <mxGeometry x="-11495" y="-1539.15" width="615.0000000000005" height="174.83000000000004" as="geometry"/>
                </mxCell>
                <mxCell id="14" value="" style="ellipse;whiteSpace=wrap;html=1;aspect=fixed;fontSize=30;strokeColor=#000000;fillColor=#FFD966;opacity=80;" parent="13" vertex="1">
                    <mxGeometry width="174.83" height="174.83" as="geometry"/>
                </mxCell>
                <mxCell id="15" value="" style="ellipse;whiteSpace=wrap;html=1;aspect=fixed;fillColor=#67AB9F;strokeWidth=4;strokeColor=#000000;" parent="13" vertex="1">
                    <mxGeometry x="67.41000000000031" y="21.909999999999968" width="40" height="40" as="geometry"/>
                </mxCell>
                <mxCell id="16" value="" style="endArrow=none;html=1;rounded=0;strokeColor=#000000;strokeWidth=4;exitX=0;exitY=0;exitDx=0;exitDy=0;entryX=1;entryY=1;entryDx=0;entryDy=0;" parent="13" source="15" target="15" edge="1">
                    <mxGeometry width="50" height="50" relative="1" as="geometry">
                        <mxPoint x="72.41000000000031" y="53.65999999999997" as="sourcePoint"/>
                        <mxPoint x="97.41000000000031" y="22.409999999999968" as="targetPoint"/>
                    </mxGeometry>
                </mxCell>
                <mxCell id="17" value="" style="endArrow=none;html=1;rounded=0;strokeColor=#000000;strokeWidth=4;exitX=0;exitY=1;exitDx=0;exitDy=0;entryX=1;entryY=0;entryDx=0;entryDy=0;" parent="13" source="15" target="15" edge="1">
                    <mxGeometry width="50" height="50" relative="1" as="geometry">
                        <mxPoint x="28.267864376269245" y="-1.517669529663749" as="sourcePoint"/>
                        <mxPoint x="56.72148411760509" y="33.62341811969657" as="targetPoint"/>
                    </mxGeometry>
                </mxCell>
                <mxCell id="18" style="edgeStyle=orthogonalEdgeStyle;rounded=0;jumpStyle=none;jumpSize=6;orthogonalLoop=1;jettySize=auto;html=1;entryX=0;entryY=0.5;entryDx=0;entryDy=0;startArrow=none;startFill=0;endArrow=classic;endFill=1;startSize=1;endSize=1;strokeColor=#000000;strokeWidth=4;" parent="13" source="19" target="15" edge="1">
                    <mxGeometry relative="1" as="geometry">
                        <Array as="points">
                            <mxPoint x="47.74000000000024" y="42.40999999999997"/>
                        </Array>
                    </mxGeometry>
                </mxCell>
                <mxCell id="19" value="" style="whiteSpace=wrap;html=1;aspect=fixed;fillColor=#dae8fc;strokeColor=#000000;strokeWidth=4;" parent="13" vertex="1">
                    <mxGeometry x="29.740000000000236" y="62.90999999999997" width="27.5" height="27.5" as="geometry"/>
                </mxCell>
                <mxCell id="20" value="" style="ellipse;whiteSpace=wrap;html=1;aspect=fixed;fillColor=#e1d5e7;strokeColor=#000000;strokeWidth=4;" parent="13" vertex="1">
                    <mxGeometry x="67.40999999999985" y="93.41000000000008" width="40" height="40" as="geometry"/>
                </mxCell>
                <mxCell id="21" value="" style="endArrow=none;html=1;rounded=0;strokeColor=#000000;entryX=0.5;entryY=0;entryDx=0;entryDy=0;exitX=0.5;exitY=1;exitDx=0;exitDy=0;strokeWidth=4;" parent="13" source="20" target="20" edge="1">
                    <mxGeometry width="50" height="50" relative="1" as="geometry">
                        <mxPoint x="67.40999999999985" y="68.40999999999997" as="sourcePoint"/>
                        <mxPoint x="117.40999999999985" y="18.409999999999968" as="targetPoint"/>
                    </mxGeometry>
                </mxCell>
                <mxCell id="22" style="edgeStyle=orthogonalEdgeStyle;rounded=0;jumpStyle=none;jumpSize=6;orthogonalLoop=1;jettySize=auto;html=1;entryX=0.5;entryY=0;entryDx=0;entryDy=0;startArrow=none;startFill=0;endArrow=classic;endFill=1;startSize=1;endSize=1;strokeColor=#000000;strokeWidth=4;" parent="13" source="15" target="20" edge="1">
                    <mxGeometry relative="1" as="geometry"/>
                </mxCell>
                <mxCell id="23" value="" style="endArrow=none;html=1;rounded=0;strokeColor=#000000;entryX=0;entryY=0.5;entryDx=0;entryDy=0;exitX=1;exitY=0.5;exitDx=0;exitDy=0;strokeWidth=4;" parent="13" source="20" target="20" edge="1">
                    <mxGeometry width="50" height="50" relative="1" as="geometry">
                        <mxPoint x="117.40999999999985" y="-31.590000000000032" as="sourcePoint"/>
                        <mxPoint x="117.40999999999985" y="-91.59000000000003" as="targetPoint"/>
                    </mxGeometry>
                </mxCell>
                <mxCell id="24" style="edgeStyle=orthogonalEdgeStyle;rounded=1;orthogonalLoop=1;jettySize=auto;html=1;exitX=1;exitY=0.25;exitDx=0;exitDy=0;entryX=1;entryY=0.5;entryDx=0;entryDy=0;fontSize=30;fontColor=#990000;startArrow=none;startFill=0;endArrow=classic;endFill=1;strokeWidth=2;" parent="13" source="25" target="14" edge="1">
                    <mxGeometry relative="1" as="geometry">
                        <Array as="points">
                            <mxPoint x="159.74000000000024" y="104.40999999999997"/>
                            <mxPoint x="159.74000000000024" y="87.40999999999997"/>
                        </Array>
                    </mxGeometry>
                </mxCell>
                <mxCell id="25" value="" style="rounded=0;whiteSpace=wrap;html=1;glass=0;strokeColor=#000000;strokeWidth=4;fillColor=#FFD966;" parent="13" vertex="1">
                    <mxGeometry x="126.65999999999985" y="94.91000000000008" width="20" height="36" as="geometry"/>
                </mxCell>
                <mxCell id="26" value="" style="endArrow=none;html=1;rounded=0;startSize=1;endSize=1;strokeColor=#000000;strokeWidth=4;jumpStyle=none;jumpSize=6;" parent="13" edge="1">
                    <mxGeometry width="50" height="50" relative="1" as="geometry">
                        <mxPoint x="126.65999999999849" y="131.40999999999997" as="sourcePoint"/>
                        <mxPoint x="136.6599999999985" y="120.90999999999997" as="targetPoint"/>
                    </mxGeometry>
                </mxCell>
                <mxCell id="27" value="" style="endArrow=none;html=1;rounded=0;startSize=1;endSize=1;strokeColor=#000000;strokeWidth=4;jumpStyle=none;jumpSize=6;" parent="13" edge="1">
                    <mxGeometry width="50" height="50" relative="1" as="geometry">
                        <mxPoint x="136.6599999999985" y="120.90999999999997" as="sourcePoint"/>
                        <mxPoint x="146.6599999999985" y="130.90999999999997" as="targetPoint"/>
                    </mxGeometry>
                </mxCell>
                <mxCell id="28" style="edgeStyle=orthogonalEdgeStyle;rounded=0;jumpStyle=none;jumpSize=6;orthogonalLoop=1;jettySize=auto;html=1;entryX=0;entryY=0.5;entryDx=0;entryDy=0;startArrow=none;startFill=0;endArrow=classic;endFill=1;startSize=1;endSize=1;strokeColor=#000000;strokeWidth=4;" parent="13" source="20" target="25" edge="1">
                    <mxGeometry relative="1" as="geometry"/>
                </mxCell>
                <mxCell id="29" style="rounded=1;orthogonalLoop=1;jettySize=auto;html=1;exitX=0;exitY=0.5;exitDx=0;exitDy=0;entryX=0;entryY=0.5;entryDx=0;entryDy=0;fontSize=30;fontColor=#990000;startArrow=none;startFill=0;endArrow=classic;endFill=1;strokeWidth=2;edgeStyle=orthogonalEdgeStyle;" parent="13" source="14" target="20" edge="1">
                    <mxGeometry relative="1" as="geometry">
                        <Array as="points">
                            <mxPoint x="19.740000000000236" y="87.40999999999997"/>
                            <mxPoint x="19.740000000000236" y="113.40999999999997"/>
                        </Array>
                    </mxGeometry>
                </mxCell>
                <mxCell id="30" value="" style="group" parent="13" vertex="1" connectable="0">
                    <mxGeometry x="220.00000000000045" width="174.82999999999993" height="174.83000000000004" as="geometry"/>
                </mxCell>
                <mxCell id="31" value="" style="ellipse;whiteSpace=wrap;html=1;aspect=fixed;fontSize=30;strokeColor=#000000;fillColor=#FFD966;opacity=80;" parent="30" vertex="1">
                    <mxGeometry width="174.83" height="174.83" as="geometry"/>
                </mxCell>
                <mxCell id="32" value="" style="ellipse;whiteSpace=wrap;html=1;aspect=fixed;fillColor=#67AB9F;strokeWidth=4;strokeColor=#000000;" parent="30" vertex="1">
                    <mxGeometry x="67.40999999999985" y="21.909999999999968" width="40" height="40" as="geometry"/>
                </mxCell>
                <mxCell id="33" value="" style="endArrow=none;html=1;rounded=0;strokeColor=#000000;strokeWidth=4;exitX=0;exitY=0;exitDx=0;exitDy=0;entryX=1;entryY=1;entryDx=0;entryDy=0;" parent="30" source="32" target="32" edge="1">
                    <mxGeometry width="50" height="50" relative="1" as="geometry">
                        <mxPoint x="72.40999999999985" y="53.65999999999997" as="sourcePoint"/>
                        <mxPoint x="97.40999999999985" y="22.409999999999968" as="targetPoint"/>
                    </mxGeometry>
                </mxCell>
                <mxCell id="34" value="" style="endArrow=none;html=1;rounded=0;strokeColor=#000000;strokeWidth=4;exitX=0;exitY=1;exitDx=0;exitDy=0;entryX=1;entryY=0;entryDx=0;entryDy=0;" parent="30" source="32" target="32" edge="1">
                    <mxGeometry width="50" height="50" relative="1" as="geometry">
                        <mxPoint x="28.267864376269245" y="-1.517669529663749" as="sourcePoint"/>
                        <mxPoint x="56.72148411760509" y="33.62341811969657" as="targetPoint"/>
                    </mxGeometry>
                </mxCell>
                <mxCell id="35" style="edgeStyle=orthogonalEdgeStyle;rounded=0;jumpStyle=none;jumpSize=6;orthogonalLoop=1;jettySize=auto;html=1;entryX=0;entryY=0.5;entryDx=0;entryDy=0;startArrow=none;startFill=0;endArrow=classic;endFill=1;startSize=1;endSize=1;strokeColor=#000000;strokeWidth=4;" parent="30" source="36" target="32" edge="1">
                    <mxGeometry relative="1" as="geometry">
                        <Array as="points">
                            <mxPoint x="47.73999999999978" y="42.40999999999997"/>
                        </Array>
                    </mxGeometry>
                </mxCell>
                <mxCell id="36" value="" style="whiteSpace=wrap;html=1;aspect=fixed;fillColor=#dae8fc;strokeColor=#000000;strokeWidth=4;" parent="30" vertex="1">
                    <mxGeometry x="29.73999999999978" y="62.90999999999997" width="27.5" height="27.5" as="geometry"/>
                </mxCell>
                <mxCell id="37" value="" style="ellipse;whiteSpace=wrap;html=1;aspect=fixed;fillColor=#e1d5e7;strokeColor=#000000;strokeWidth=4;" parent="30" vertex="1">
                    <mxGeometry x="67.40999999999985" y="93.41000000000008" width="40" height="40" as="geometry"/>
                </mxCell>
                <mxCell id="38" value="" style="endArrow=none;html=1;rounded=0;strokeColor=#000000;entryX=0.5;entryY=0;entryDx=0;entryDy=0;exitX=0.5;exitY=1;exitDx=0;exitDy=0;strokeWidth=4;" parent="30" source="37" target="37" edge="1">
                    <mxGeometry width="50" height="50" relative="1" as="geometry">
                        <mxPoint x="67.40999999999985" y="68.40999999999997" as="sourcePoint"/>
                        <mxPoint x="117.40999999999985" y="18.409999999999968" as="targetPoint"/>
                    </mxGeometry>
                </mxCell>
                <mxCell id="39" style="edgeStyle=orthogonalEdgeStyle;rounded=0;jumpStyle=none;jumpSize=6;orthogonalLoop=1;jettySize=auto;html=1;entryX=0.5;entryY=0;entryDx=0;entryDy=0;startArrow=none;startFill=0;endArrow=classic;endFill=1;startSize=1;endSize=1;strokeColor=#000000;strokeWidth=4;" parent="30" source="32" target="37" edge="1">
                    <mxGeometry relative="1" as="geometry"/>
                </mxCell>
                <mxCell id="40" value="" style="endArrow=none;html=1;rounded=0;strokeColor=#000000;entryX=0;entryY=0.5;entryDx=0;entryDy=0;exitX=1;exitY=0.5;exitDx=0;exitDy=0;strokeWidth=4;" parent="30" source="37" target="37" edge="1">
                    <mxGeometry width="50" height="50" relative="1" as="geometry">
                        <mxPoint x="117.40999999999985" y="-31.590000000000032" as="sourcePoint"/>
                        <mxPoint x="117.40999999999985" y="-91.59000000000003" as="targetPoint"/>
                    </mxGeometry>
                </mxCell>
                <mxCell id="41" style="edgeStyle=orthogonalEdgeStyle;rounded=1;orthogonalLoop=1;jettySize=auto;html=1;exitX=1;exitY=0.25;exitDx=0;exitDy=0;entryX=1;entryY=0.5;entryDx=0;entryDy=0;fontSize=30;fontColor=#990000;startArrow=none;startFill=0;endArrow=classic;endFill=1;strokeWidth=2;" parent="30" source="42" target="31" edge="1">
                    <mxGeometry relative="1" as="geometry">
                        <Array as="points">
                            <mxPoint x="159.73999999999978" y="104.40999999999997"/>
                            <mxPoint x="159.73999999999978" y="87.40999999999997"/>
                        </Array>
                    </mxGeometry>
                </mxCell>
                <mxCell id="42" value="" style="rounded=0;whiteSpace=wrap;html=1;glass=0;strokeColor=#000000;strokeWidth=4;fillColor=#FFD966;" parent="30" vertex="1">
                    <mxGeometry x="126.65999999999985" y="94.91000000000008" width="20" height="36" as="geometry"/>
                </mxCell>
                <mxCell id="43" value="" style="endArrow=none;html=1;rounded=0;startSize=1;endSize=1;strokeColor=#000000;strokeWidth=4;jumpStyle=none;jumpSize=6;" parent="30" edge="1">
                    <mxGeometry width="50" height="50" relative="1" as="geometry">
                        <mxPoint x="126.65999999999849" y="131.40999999999997" as="sourcePoint"/>
                        <mxPoint x="136.6599999999985" y="120.90999999999997" as="targetPoint"/>
                    </mxGeometry>
                </mxCell>
                <mxCell id="44" value="" style="endArrow=none;html=1;rounded=0;startSize=1;endSize=1;strokeColor=#000000;strokeWidth=4;jumpStyle=none;jumpSize=6;" parent="30" edge="1">
                    <mxGeometry width="50" height="50" relative="1" as="geometry">
                        <mxPoint x="136.6599999999985" y="120.90999999999997" as="sourcePoint"/>
                        <mxPoint x="146.6599999999985" y="130.90999999999997" as="targetPoint"/>
                    </mxGeometry>
                </mxCell>
                <mxCell id="45" style="edgeStyle=orthogonalEdgeStyle;rounded=0;jumpStyle=none;jumpSize=6;orthogonalLoop=1;jettySize=auto;html=1;entryX=0;entryY=0.5;entryDx=0;entryDy=0;startArrow=none;startFill=0;endArrow=classic;endFill=1;startSize=1;endSize=1;strokeColor=#000000;strokeWidth=4;" parent="30" source="37" target="42" edge="1">
                    <mxGeometry relative="1" as="geometry"/>
                </mxCell>
                <mxCell id="46" style="rounded=1;orthogonalLoop=1;jettySize=auto;html=1;exitX=0;exitY=0.5;exitDx=0;exitDy=0;entryX=0;entryY=0.5;entryDx=0;entryDy=0;fontSize=30;fontColor=#990000;startArrow=none;startFill=0;endArrow=classic;endFill=1;strokeWidth=2;edgeStyle=orthogonalEdgeStyle;" parent="30" source="31" target="37" edge="1">
                    <mxGeometry relative="1" as="geometry">
                        <Array as="points">
                            <mxPoint x="19.73999999999978" y="87.40999999999997"/>
                            <mxPoint x="19.73999999999978" y="113.40999999999997"/>
                        </Array>
                    </mxGeometry>
                </mxCell>
                <mxCell id="47" style="edgeStyle=none;html=1;strokeColor=#000000;strokeWidth=3;entryX=0;entryY=0.5;entryDx=0;entryDy=0;" parent="13" source="14" target="31" edge="1">
                    <mxGeometry relative="1" as="geometry">
                        <mxPoint x="200.00000000000045" y="87.41499999999996" as="targetPoint"/>
                    </mxGeometry>
                </mxCell>
                <mxCell id="48" style="edgeStyle=none;html=1;strokeColor=#000000;strokeWidth=3;entryX=0;entryY=0.5;entryDx=0;entryDy=0;exitX=1;exitY=0.5;exitDx=0;exitDy=0;" parent="13" source="31" target="50" edge="1">
                    <mxGeometry relative="1" as="geometry">
                        <mxPoint x="420.1700000000005" y="87.41499999999996" as="targetPoint"/>
                        <mxPoint x="395.00000000000273" y="87.41500000000019" as="sourcePoint"/>
                    </mxGeometry>
                </mxCell>
                <mxCell id="49" value="" style="group" parent="13" vertex="1" connectable="0">
                    <mxGeometry x="440.1700000000005" width="174.82999999999993" height="174.83000000000004" as="geometry"/>
                </mxCell>
                <mxCell id="50" value="" style="ellipse;whiteSpace=wrap;html=1;aspect=fixed;fontSize=30;strokeColor=#000000;fillColor=#FFD966;opacity=80;" parent="49" vertex="1">
                    <mxGeometry width="174.83" height="174.83" as="geometry"/>
                </mxCell>
                <mxCell id="51" value="" style="ellipse;whiteSpace=wrap;html=1;aspect=fixed;fillColor=#67AB9F;strokeWidth=4;strokeColor=#000000;" parent="49" vertex="1">
                    <mxGeometry x="67.40999999999985" y="21.909999999999968" width="40" height="40" as="geometry"/>
                </mxCell>
                <mxCell id="52" value="" style="endArrow=none;html=1;rounded=0;strokeColor=#000000;strokeWidth=4;exitX=0;exitY=0;exitDx=0;exitDy=0;entryX=1;entryY=1;entryDx=0;entryDy=0;" parent="49" source="51" target="51" edge="1">
                    <mxGeometry width="50" height="50" relative="1" as="geometry">
                        <mxPoint x="72.40999999999985" y="53.65999999999997" as="sourcePoint"/>
                        <mxPoint x="97.40999999999985" y="22.409999999999968" as="targetPoint"/>
                    </mxGeometry>
                </mxCell>
                <mxCell id="53" value="" style="endArrow=none;html=1;rounded=0;strokeColor=#000000;strokeWidth=4;exitX=0;exitY=1;exitDx=0;exitDy=0;entryX=1;entryY=0;entryDx=0;entryDy=0;" parent="49" source="51" target="51" edge="1">
                    <mxGeometry width="50" height="50" relative="1" as="geometry">
                        <mxPoint x="28.267864376269245" y="-1.517669529663749" as="sourcePoint"/>
                        <mxPoint x="56.72148411760509" y="33.62341811969657" as="targetPoint"/>
                    </mxGeometry>
                </mxCell>
                <mxCell id="54" style="edgeStyle=orthogonalEdgeStyle;rounded=0;jumpStyle=none;jumpSize=6;orthogonalLoop=1;jettySize=auto;html=1;entryX=0;entryY=0.5;entryDx=0;entryDy=0;startArrow=none;startFill=0;endArrow=classic;endFill=1;startSize=1;endSize=1;strokeColor=#000000;strokeWidth=4;" parent="49" source="55" target="51" edge="1">
                    <mxGeometry relative="1" as="geometry">
                        <Array as="points">
                            <mxPoint x="47.73999999999978" y="42.40999999999997"/>
                        </Array>
                    </mxGeometry>
                </mxCell>
                <mxCell id="55" value="" style="whiteSpace=wrap;html=1;aspect=fixed;fillColor=#dae8fc;strokeColor=#000000;strokeWidth=4;" parent="49" vertex="1">
                    <mxGeometry x="29.73999999999978" y="62.90999999999997" width="27.5" height="27.5" as="geometry"/>
                </mxCell>
                <mxCell id="56" value="" style="ellipse;whiteSpace=wrap;html=1;aspect=fixed;fillColor=#e1d5e7;strokeColor=#000000;strokeWidth=4;" parent="49" vertex="1">
                    <mxGeometry x="67.40999999999985" y="93.41000000000008" width="40" height="40" as="geometry"/>
                </mxCell>
                <mxCell id="57" value="" style="endArrow=none;html=1;rounded=0;strokeColor=#000000;entryX=0.5;entryY=0;entryDx=0;entryDy=0;exitX=0.5;exitY=1;exitDx=0;exitDy=0;strokeWidth=4;" parent="49" source="56" target="56" edge="1">
                    <mxGeometry width="50" height="50" relative="1" as="geometry">
                        <mxPoint x="67.40999999999985" y="68.40999999999997" as="sourcePoint"/>
                        <mxPoint x="117.40999999999985" y="18.409999999999968" as="targetPoint"/>
                    </mxGeometry>
                </mxCell>
                <mxCell id="58" style="edgeStyle=orthogonalEdgeStyle;rounded=0;jumpStyle=none;jumpSize=6;orthogonalLoop=1;jettySize=auto;html=1;entryX=0.5;entryY=0;entryDx=0;entryDy=0;startArrow=none;startFill=0;endArrow=classic;endFill=1;startSize=1;endSize=1;strokeColor=#000000;strokeWidth=4;" parent="49" source="51" target="56" edge="1">
                    <mxGeometry relative="1" as="geometry"/>
                </mxCell>
                <mxCell id="59" value="" style="endArrow=none;html=1;rounded=0;strokeColor=#000000;entryX=0;entryY=0.5;entryDx=0;entryDy=0;exitX=1;exitY=0.5;exitDx=0;exitDy=0;strokeWidth=4;" parent="49" source="56" target="56" edge="1">
                    <mxGeometry width="50" height="50" relative="1" as="geometry">
                        <mxPoint x="117.40999999999985" y="-31.590000000000032" as="sourcePoint"/>
                        <mxPoint x="117.40999999999985" y="-91.59000000000003" as="targetPoint"/>
                    </mxGeometry>
                </mxCell>
                <mxCell id="60" style="edgeStyle=orthogonalEdgeStyle;rounded=1;orthogonalLoop=1;jettySize=auto;html=1;exitX=1;exitY=0.5;exitDx=0;exitDy=0;entryX=1;entryY=0.5;entryDx=0;entryDy=0;fontSize=30;fontColor=#990000;startArrow=none;startFill=0;endArrow=classic;endFill=1;strokeWidth=2;" parent="49" source="61" target="50" edge="1">
                    <mxGeometry relative="1" as="geometry">
                        <Array as="points">
                            <mxPoint x="147" y="87"/>
                            <mxPoint x="160" y="87"/>
                        </Array>
                    </mxGeometry>
                </mxCell>
                <mxCell id="61" value="" style="rounded=0;whiteSpace=wrap;html=1;glass=0;strokeColor=#000000;strokeWidth=4;fillColor=#FFD966;" parent="49" vertex="1">
                    <mxGeometry x="138.65999999999985" y="67.91000000000008" width="20" height="36" as="geometry"/>
                </mxCell>
                <mxCell id="62" value="" style="endArrow=none;html=1;rounded=0;startSize=1;endSize=1;strokeColor=#000000;strokeWidth=4;jumpStyle=none;jumpSize=6;" parent="49" edge="1">
                    <mxGeometry width="50" height="50" relative="1" as="geometry">
                        <mxPoint x="138.6599999999985" y="103.90999999999997" as="sourcePoint"/>
                        <mxPoint x="148.6599999999985" y="93.40999999999997" as="targetPoint"/>
                    </mxGeometry>
                </mxCell>
                <mxCell id="63" value="" style="endArrow=none;html=1;rounded=0;startSize=1;endSize=1;strokeColor=#000000;strokeWidth=4;jumpStyle=none;jumpSize=6;" parent="49" edge="1">
                    <mxGeometry width="50" height="50" relative="1" as="geometry">
                        <mxPoint x="148.6599999999985" y="93.40999999999997" as="sourcePoint"/>
                        <mxPoint x="158.6599999999985" y="103.40999999999997" as="targetPoint"/>
                    </mxGeometry>
                </mxCell>
                <mxCell id="64" style="edgeStyle=orthogonalEdgeStyle;rounded=1;jumpStyle=none;jumpSize=6;orthogonalLoop=1;jettySize=auto;html=1;entryX=0;entryY=0.5;entryDx=0;entryDy=0;startArrow=none;startFill=0;endArrow=classic;endFill=1;startSize=1;endSize=1;strokeColor=#000000;strokeWidth=4;" parent="49" source="56" target="61" edge="1">
                    <mxGeometry relative="1" as="geometry">
                        <Array as="points">
                            <mxPoint x="120" y="113"/>
                            <mxPoint x="120" y="86"/>
                        </Array>
                    </mxGeometry>
                </mxCell>
                <mxCell id="65" style="rounded=1;orthogonalLoop=1;jettySize=auto;html=1;exitX=0;exitY=0.5;exitDx=0;exitDy=0;entryX=0;entryY=0.5;entryDx=0;entryDy=0;fontSize=30;fontColor=#990000;startArrow=none;startFill=0;endArrow=classic;endFill=1;strokeWidth=2;edgeStyle=orthogonalEdgeStyle;" parent="49" source="50" target="56" edge="1">
                    <mxGeometry relative="1" as="geometry">
                        <Array as="points">
                            <mxPoint x="19.73999999999978" y="87.40999999999997"/>
                            <mxPoint x="19.73999999999978" y="113.40999999999997"/>
                        </Array>
                    </mxGeometry>
                </mxCell>
                <mxCell id="66" style="edgeStyle=none;html=1;strokeColor=#000000;strokeWidth=3;entryX=0;entryY=0.5;entryDx=0;entryDy=0;exitX=1;exitY=0.5;exitDx=0;exitDy=0;" parent="1" source="50" edge="1">
                    <mxGeometry relative="1" as="geometry">
                        <mxPoint x="-10834.999999999995" y="-1451.7350000000001" as="targetPoint"/>
                        <mxPoint x="-10880.000000000007" y="-1451.9950000000001" as="sourcePoint"/>
                    </mxGeometry>
                </mxCell>
                <mxCell id="67" style="edgeStyle=none;html=1;entryX=0.5;entryY=0;entryDx=0;entryDy=0;fontSize=24;strokeColor=#990000;strokeWidth=6;startArrow=none;" parent="1" source="73" target="15" edge="1">
                    <mxGeometry relative="1" as="geometry"/>
                </mxCell>
                <mxCell id="68" value="" style="whiteSpace=wrap;html=1;aspect=fixed;fillColor=#d5e8d4;strokeColor=#000000;strokeWidth=5;" parent="1" vertex="1">
                    <mxGeometry x="-11228.56" y="-1726.5900000000001" width="82.11" height="82.11" as="geometry"/>
                </mxCell>
                <mxCell id="69" style="edgeStyle=none;html=1;entryX=0.5;entryY=0;entryDx=0;entryDy=0;fontSize=24;strokeColor=#990000;strokeWidth=6;startArrow=none;" parent="1" source="75" target="32" edge="1">
                    <mxGeometry relative="1" as="geometry">
                        <mxPoint x="-11187.59" y="-1519.1500000000003" as="targetPoint"/>
                        <mxPoint x="-11187.50089292801" y="-1641.98" as="sourcePoint"/>
                    </mxGeometry>
                </mxCell>
                <mxCell id="70" value="" style="whiteSpace=wrap;html=1;aspect=fixed;fillColor=#d5e8d4;strokeColor=#000000;strokeWidth=5;" parent="1" vertex="1">
                    <mxGeometry x="-11008.470000000001" y="-1726.5900000000001" width="82.11" height="82.11" as="geometry"/>
                </mxCell>
                <mxCell id="71" style="edgeStyle=none;html=1;entryX=0.5;entryY=0;entryDx=0;entryDy=0;fontSize=24;strokeColor=#990000;strokeWidth=6;" parent="1" source="70" target="51" edge="1">
                    <mxGeometry relative="1" as="geometry">
                        <mxPoint x="-10962.59" y="-1517.2400000000002" as="targetPoint"/>
                    </mxGeometry>
                </mxCell>
                <mxCell id="72" value="" style="edgeStyle=none;html=1;entryX=0.5;entryY=0;entryDx=0;entryDy=0;fontSize=24;strokeColor=#990000;strokeWidth=3;endArrow=none;" parent="1" source="7" target="73" edge="1">
                    <mxGeometry relative="1" as="geometry">
                        <mxPoint x="-11407.593780266794" y="-1644.4800000000005" as="sourcePoint"/>
                        <mxPoint x="-11407.59" y="-1517.2400000000002" as="targetPoint"/>
                    </mxGeometry>
                </mxCell>
                <mxCell id="73" value="" style="whiteSpace=wrap;html=1;fillColor=#d5e8d4;strokeColor=#000000;strokeWidth=5;" parent="1" vertex="1">
                    <mxGeometry x="-11412.59" y="-1641.98" width="10" height="3.33" as="geometry"/>
                </mxCell>
                <mxCell id="74" value="" style="edgeStyle=none;html=1;entryX=0.5;entryY=0;entryDx=0;entryDy=0;fontSize=24;strokeColor=#990000;strokeWidth=3;endArrow=none;" parent="1" source="68" edge="1">
                    <mxGeometry relative="1" as="geometry">
                        <mxPoint x="-11187.5" y="-1644.48" as="targetPoint"/>
                        <mxPoint x="-11187.525735464511" y="-1644.4800000000005" as="sourcePoint"/>
                    </mxGeometry>
                </mxCell>
                <mxCell id="75" value="" style="whiteSpace=wrap;html=1;fillColor=#d5e8d4;strokeColor=#000000;strokeWidth=5;" parent="1" vertex="1">
                    <mxGeometry x="-11192.5" y="-1641.98" width="10" height="3.33" as="geometry"/>
                </mxCell>
                <mxCell id="76" value="" style="edgeStyle=none;html=1;entryX=0.5;entryY=0;entryDx=0;entryDy=0;fontSize=24;strokeColor=#990000;strokeWidth=5;startArrow=none;endArrow=none;" parent="1" target="75" edge="1">
                    <mxGeometry relative="1" as="geometry">
                        <mxPoint x="-11187.59" y="-1517.2400000000002" as="targetPoint"/>
                        <mxPoint x="-11187.50089292801" y="-1641.98" as="sourcePoint"/>
                    </mxGeometry>
                </mxCell>
                <mxCell id="77" value="" style="whiteSpace=wrap;html=1;fillColor=#d5e8d4;strokeColor=#000000;strokeWidth=5;" parent="1" vertex="1">
                    <mxGeometry x="-10972" y="-1641.98" width="10" height="3.33" as="geometry"/>
                </mxCell>
                <mxCell id="78" style="edgeStyle=none;html=1;fontSize=24;strokeColor=#000000;strokeWidth=6;entryX=0;entryY=0.5;entryDx=0;entryDy=0;exitX=0.5;exitY=1;exitDx=0;exitDy=0;" parent="1" source="80" target="14" edge="1">
                    <mxGeometry relative="1" as="geometry">
                        <mxPoint x="-9385" y="-1589.15" as="sourcePoint"/>
                        <Array as="points">
                            <mxPoint x="-10388" y="-1349.15"/>
                            <mxPoint x="-11535" y="-1349.15"/>
                            <mxPoint x="-11535" y="-1452.15"/>
                        </Array>
                    </mxGeometry>
                </mxCell>
                <mxCell id="79" value="" style="whiteSpace=wrap;html=1;fillColor=#d5e8d4;strokeColor=#000000;strokeWidth=5;rotation=90;" parent="1" vertex="1">
                    <mxGeometry x="-10418" y="-1483.48" width="10" height="3.33" as="geometry"/>
                </mxCell>
                <mxCell id="80" value="" style="whiteSpace=wrap;html=1;fillColor=#d5e8d4;strokeColor=#000000;strokeWidth=5;rotation=0;" parent="1" vertex="1">
                    <mxGeometry x="-10392.8" y="-1420.84" width="10" height="3.33" as="geometry"/>
                </mxCell>
                <mxCell id="81" value="RAG" style="ellipse;whiteSpace=wrap;html=1;aspect=fixed;sketch=0;fillColor=#d5e8d4;strokeColor=#82b366;" parent="1" vertex="1">
                    <mxGeometry x="-11422.59" y="-1720.15" width="30" height="30" as="geometry"/>
                </mxCell>
                <mxCell id="82" value="" style="endArrow=none;dashed=1;html=1;dashPattern=1 3;strokeWidth=1;exitX=0.5;exitY=0;exitDx=0;exitDy=0;jumpSize=0;" parent="1" source="81" edge="1">
                    <mxGeometry width="50" height="50" relative="1" as="geometry">
                        <mxPoint x="-11322.59" y="-1669.15" as="sourcePoint"/>
                        <mxPoint x="-11442.59" y="-1759.15" as="targetPoint"/>
                    </mxGeometry>
                </mxCell>
                <mxCell id="83" value="" style="endArrow=none;dashed=1;html=1;dashPattern=1 3;strokeWidth=1;exitX=0.5;exitY=0;exitDx=0;exitDy=0;jumpSize=0;" parent="1" source="81" edge="1">
                    <mxGeometry width="50" height="50" relative="1" as="geometry">
                        <mxPoint x="-11397.59" y="-1710.15" as="sourcePoint"/>
                        <mxPoint x="-11372.59" y="-1759.15" as="targetPoint"/>
                    </mxGeometry>
                </mxCell>
                <mxCell id="84" value="RAG" style="ellipse;whiteSpace=wrap;html=1;aspect=fixed;sketch=0;fillColor=#d5e8d4;strokeColor=#82b366;" parent="1" vertex="1">
                    <mxGeometry x="-11202.5" y="-1720.15" width="30" height="30" as="geometry"/>
                </mxCell>
                <mxCell id="85" value="" style="endArrow=none;dashed=1;html=1;dashPattern=1 3;strokeWidth=1;exitX=0.5;exitY=0;exitDx=0;exitDy=0;jumpSize=0;" parent="1" source="84" edge="1">
                    <mxGeometry width="50" height="50" relative="1" as="geometry">
                        <mxPoint x="-11102.5" y="-1669.15" as="sourcePoint"/>
                        <mxPoint x="-11222.5" y="-1759.15" as="targetPoint"/>
                    </mxGeometry>
                </mxCell>
                <mxCell id="86" value="" style="endArrow=none;dashed=1;html=1;dashPattern=1 3;strokeWidth=1;exitX=0.5;exitY=0;exitDx=0;exitDy=0;jumpSize=0;" parent="1" source="84" edge="1">
                    <mxGeometry width="50" height="50" relative="1" as="geometry">
                        <mxPoint x="-11177.5" y="-1710.15" as="sourcePoint"/>
                        <mxPoint x="-11152.5" y="-1759.15" as="targetPoint"/>
                    </mxGeometry>
                </mxCell>
                <mxCell id="87" value="RAG" style="ellipse;whiteSpace=wrap;html=1;aspect=fixed;sketch=0;fillColor=#d5e8d4;strokeColor=#82b366;" parent="1" vertex="1">
                    <mxGeometry x="-10982" y="-1720.15" width="30" height="30" as="geometry"/>
                </mxCell>
                <mxCell id="88" value="" style="endArrow=none;dashed=1;html=1;dashPattern=1 3;strokeWidth=1;exitX=0.5;exitY=0;exitDx=0;exitDy=0;jumpSize=0;" parent="1" source="87" edge="1">
                    <mxGeometry width="50" height="50" relative="1" as="geometry">
                        <mxPoint x="-10882" y="-1669.15" as="sourcePoint"/>
                        <mxPoint x="-11002" y="-1759.15" as="targetPoint"/>
                    </mxGeometry>
                </mxCell>
                <mxCell id="89" value="" style="endArrow=none;dashed=1;html=1;dashPattern=1 3;strokeWidth=1;exitX=0.5;exitY=0;exitDx=0;exitDy=0;jumpSize=0;" parent="1" source="87" edge="1">
                    <mxGeometry width="50" height="50" relative="1" as="geometry">
                        <mxPoint x="-10957" y="-1710.15" as="sourcePoint"/>
                        <mxPoint x="-10932" y="-1759.15" as="targetPoint"/>
                    </mxGeometry>
                </mxCell>
                <mxCell id="90" value="&lt;b&gt;&lt;br style=&quot;font-size: 27px&quot;&gt;&lt;br style=&quot;font-size: 27px&quot;&gt;WAIT:&lt;br style=&quot;font-size: 27px&quot;&gt;&lt;/b&gt;&lt;blockquote style=&quot;margin: 0px 0px 0px 40px ; border: none ; padding: 0px ; font-size: 27px&quot;&gt;&lt;font style=&quot;font-size: 27px&quot; color=&quot;#990000&quot;&gt;&lt;b&gt;STATE: WAIT&lt;br style=&quot;font-size: 27px&quot;&gt;X_MODIFY: +1&lt;br style=&quot;font-size: 27px&quot;&gt;X_COUNT: 1&lt;/b&gt;&lt;/font&gt;&lt;/blockquote&gt;&lt;b&gt;&lt;br style=&quot;font-size: 27px&quot;&gt;STREAM_1D:&lt;br style=&quot;font-size: 27px&quot;&gt;&#9;&lt;/b&gt;&lt;blockquote style=&quot;margin: 0px 0px 0px 40px ; border: none ; padding: 0px ; font-size: 27px&quot;&gt;&lt;font color=&quot;#0000ff&quot; style=&quot;font-size: 27px&quot;&gt;&lt;b&gt;START_IDX:&amp;nbsp;&lt;/b&gt;&lt;/font&gt;&lt;/blockquote&gt;&lt;blockquote style=&quot;margin: 0px 0px 0px 40px ; border: none ; padding: 0px ; font-size: 27px&quot;&gt;&lt;font color=&quot;#0000ff&quot; style=&quot;font-size: 27px&quot;&gt;&lt;b&gt;0&lt;br style=&quot;font-size: 27px&quot;&gt;STATE: GENERATE&lt;br style=&quot;font-size: 27px&quot;&gt;X_MODIFY: +1&lt;br style=&quot;font-size: 27px&quot;&gt;X_COUNT: X*Y&lt;/b&gt;&lt;/font&gt;&lt;/blockquote&gt;&lt;blockquote style=&quot;margin: 0px 0px 0px 40px ; border: none ; padding: 0px ; font-size: 27px&quot;&gt;&lt;b&gt;&lt;br style=&quot;font-size: 27px&quot;&gt;&lt;/b&gt;&lt;/blockquote&gt;&lt;font color=&quot;#0000ff&quot; style=&quot;font-size: 27px&quot;&gt;&lt;b&gt;&lt;span style=&quot;font-size: 27px&quot;&gt;&#9;&lt;/span&gt;&lt;br style=&quot;font-size: 27px&quot;&gt;&lt;/b&gt;&lt;/font&gt;&lt;span style=&quot;font-size: 27px&quot;&gt;&#9;&lt;/span&gt;" style="text;html=1;strokeColor=default;fillColor=none;spacing=5;spacingTop=-20;whiteSpace=wrap;overflow=hidden;rounded=0;sketch=0;fontSize=27;" parent="1" vertex="1">
                    <mxGeometry x="-11323.22" y="-2370" width="230" height="580" as="geometry"/>
                </mxCell>
                <mxCell id="91" value="&lt;b&gt;&lt;br style=&quot;font-size: 27px&quot;&gt;&lt;br style=&quot;font-size: 27px&quot;&gt;WAIT:&lt;br style=&quot;font-size: 27px&quot;&gt;&lt;/b&gt;&lt;blockquote style=&quot;margin: 0px 0px 0px 40px ; border: none ; padding: 0px ; font-size: 27px&quot;&gt;&lt;font style=&quot;font-size: 27px&quot; color=&quot;#990000&quot;&gt;&lt;b&gt;STATE: WAIT&lt;br style=&quot;font-size: 27px&quot;&gt;X_MODIFY: +1&lt;br style=&quot;font-size: 27px&quot;&gt;X_COUNT: 2&lt;/b&gt;&lt;/font&gt;&lt;/blockquote&gt;&lt;b&gt;&lt;br style=&quot;font-size: 27px&quot;&gt;STREAM_1D:&lt;br style=&quot;font-size: 27px&quot;&gt;&#9;&lt;/b&gt;&lt;blockquote style=&quot;margin: 0px 0px 0px 40px ; border: none ; padding: 0px ; font-size: 27px&quot;&gt;&lt;font color=&quot;#0000ff&quot; style=&quot;font-size: 27px&quot;&gt;&lt;b&gt;START_IDX:&amp;nbsp;&lt;/b&gt;&lt;/font&gt;&lt;/blockquote&gt;&lt;blockquote style=&quot;margin: 0px 0px 0px 40px ; border: none ; padding: 0px ; font-size: 27px&quot;&gt;&lt;font color=&quot;#0000ff&quot; style=&quot;font-size: 27px&quot;&gt;&lt;b&gt;0&lt;br&gt;STATE: GENERATE&lt;br style=&quot;font-size: 27px&quot;&gt;X_MODIFY: +1&lt;br style=&quot;font-size: 27px&quot;&gt;X_COUNT: X*Y&lt;/b&gt;&lt;/font&gt;&lt;/blockquote&gt;&lt;blockquote style=&quot;margin: 0px 0px 0px 40px ; border: none ; padding: 0px ; font-size: 27px&quot;&gt;&lt;b&gt;&lt;br style=&quot;font-size: 27px&quot;&gt;&lt;/b&gt;&lt;/blockquote&gt;&lt;font color=&quot;#0000ff&quot; style=&quot;font-size: 27px&quot;&gt;&lt;b&gt;&lt;span style=&quot;font-size: 27px&quot;&gt;&#9;&lt;/span&gt;&lt;br style=&quot;font-size: 27px&quot;&gt;&lt;/b&gt;&lt;/font&gt;&lt;span style=&quot;font-size: 27px&quot;&gt;&#9;&lt;/span&gt;" style="text;html=1;strokeColor=default;fillColor=none;spacing=5;spacingTop=-20;whiteSpace=wrap;overflow=hidden;rounded=0;sketch=0;fontSize=27;" parent="1" vertex="1">
                    <mxGeometry x="-11093.22" y="-2370" width="230" height="580" as="geometry"/>
                </mxCell>
                <mxCell id="92" value="" style="endArrow=none;dashed=1;html=1;dashPattern=1 3;strokeWidth=6;fontSize=25;" parent="1" edge="1">
                    <mxGeometry width="50" height="50" relative="1" as="geometry">
                        <mxPoint x="-10795" y="-1690.15" as="sourcePoint"/>
                        <mxPoint x="-10565" y="-1690.15" as="targetPoint"/>
                    </mxGeometry>
                </mxCell>
                <mxCell id="93" value="RAG" style="ellipse;whiteSpace=wrap;html=1;aspect=fixed;sketch=0;fillColor=#d5e8d4;strokeColor=#82b366;" parent="1" vertex="1">
                    <mxGeometry x="-10370" y="-1460.15" width="30" height="30" as="geometry"/>
                </mxCell>
                <mxCell id="94" value="WAG" style="ellipse;whiteSpace=wrap;html=1;aspect=fixed;sketch=0;fillColor=#d5e8d4;strokeColor=#82b366;" parent="1" vertex="1">
                    <mxGeometry x="-10370" y="-1496.81" width="30" height="30" as="geometry"/>
                </mxCell>
                <mxCell id="95" value="" style="endArrow=none;dashed=1;html=1;dashPattern=1 3;strokeWidth=1;exitX=0.5;exitY=0;exitDx=0;exitDy=0;jumpSize=0;" parent="1" edge="1">
                    <mxGeometry width="50" height="50" relative="1" as="geometry">
                        <mxPoint x="-10355.59" y="-1497.15" as="sourcePoint"/>
                        <mxPoint x="-10390.59" y="-1536.15" as="targetPoint"/>
                    </mxGeometry>
                </mxCell>
                <mxCell id="96" value="" style="endArrow=none;dashed=1;html=1;dashPattern=1 3;strokeWidth=1;exitX=0.5;exitY=0;exitDx=0;exitDy=0;jumpSize=0;" parent="1" edge="1">
                    <mxGeometry width="50" height="50" relative="1" as="geometry">
                        <mxPoint x="-10355.59" y="-1497.15" as="sourcePoint"/>
                        <mxPoint x="-10320.59" y="-1536.15" as="targetPoint"/>
                    </mxGeometry>
                </mxCell>
                <mxCell id="97" value="&lt;br&gt;READ_1D_LOOP:&lt;br style=&quot;font-size: 27px&quot;&gt;&#9;&lt;blockquote style=&quot;margin: 0px 0px 0px 40px ; border: none ; padding: 0px ; font-size: 27px&quot;&gt;&lt;font color=&quot;#0000ff&quot; style=&quot;font-size: 27px&quot;&gt;START_IDX: 0&lt;br style=&quot;font-size: 27px&quot;&gt;STATE: GENERATE&lt;br style=&quot;font-size: 27px&quot;&gt;X_MODIFY: +1&lt;br style=&quot;font-size: 27px&quot;&gt;X_COUNT: X*Y&lt;/font&gt;&lt;/blockquote&gt;&lt;blockquote style=&quot;margin: 0px 0px 0px 40px ; border: none ; padding: 0px ; font-size: 27px&quot;&gt;&lt;span style=&quot;color: rgb(0 , 0 , 255) ; font-size: 27px&quot;&gt;Y_MODIFY: -X*Y&lt;/span&gt;&lt;/blockquote&gt;&lt;span style=&quot;color: rgb(0 , 0 , 255) ; font-size: 27px&quot;&gt;&amp;nbsp; &amp;nbsp; &amp;nbsp; Y_COUNT: 2&lt;/span&gt;&lt;font color=&quot;#0000ff&quot; style=&quot;font-size: 27px&quot;&gt;&lt;br style=&quot;font-size: 27px&quot;&gt;&lt;/font&gt;&lt;span style=&quot;font-size: 27px&quot;&gt;&#9;&lt;/span&gt;" style="text;html=1;strokeColor=default;fillColor=none;spacing=5;spacingTop=-20;whiteSpace=wrap;overflow=hidden;rounded=0;sketch=0;fontSize=27;fontStyle=1" parent="1" vertex="1">
                    <mxGeometry x="-10455.68" y="-1299.15" width="282.68" height="319" as="geometry"/>
                </mxCell>
                <mxCell id="98" style="edgeStyle=none;html=1;strokeWidth=5;rounded=1;entryX=0.5;entryY=1;entryDx=0;entryDy=0;" parent="1" target="79" edge="1">
                    <mxGeometry relative="1" as="geometry">
                        <mxPoint x="-10525" y="-1449.15" as="sourcePoint"/>
                        <mxPoint x="-10420" y="-1579.15" as="targetPoint"/>
                        <Array as="points">
                            <mxPoint x="-10450" y="-1449.15"/>
                            <mxPoint x="-10450" y="-1482.15"/>
                        </Array>
                    </mxGeometry>
                </mxCell>
                <mxCell id="99" value="&lt;b&gt;&lt;br style=&quot;font-size: 27px&quot;&gt;&lt;br style=&quot;font-size: 27px&quot;&gt;WAIT:&lt;br style=&quot;font-size: 27px&quot;&gt;&lt;/b&gt;&lt;blockquote style=&quot;margin: 0px 0px 0px 40px ; border: none ; padding: 0px ; font-size: 27px&quot;&gt;&lt;font style=&quot;font-size: 27px&quot; color=&quot;#990000&quot;&gt;&lt;b&gt;STATE: WAIT&lt;br style=&quot;font-size: 27px&quot;&gt;X_MODIFY: 0&lt;/b&gt;&lt;/font&gt;&lt;/blockquote&gt;&lt;blockquote style=&quot;margin: 0px 0px 0px 40px ; border: none ; padding: 0px ; font-size: 27px&quot;&gt;&lt;font style=&quot;font-size: 27px&quot; color=&quot;#990000&quot;&gt;&lt;b&gt;X_COUNT: 0&lt;/b&gt;&lt;/font&gt;&lt;/blockquote&gt;&lt;b&gt;&lt;br style=&quot;font-size: 27px&quot;&gt;STREAM_1D:&lt;br style=&quot;font-size: 27px&quot;&gt;&#9;&lt;/b&gt;&lt;blockquote style=&quot;margin: 0px 0px 0px 40px ; border: none ; padding: 0px ; font-size: 27px&quot;&gt;&lt;font color=&quot;#0000ff&quot; style=&quot;font-size: 27px&quot;&gt;&lt;b&gt;START_IDX: &lt;br&gt;0&lt;br style=&quot;font-size: 27px&quot;&gt;STATE: GENERATE&lt;br style=&quot;font-size: 27px&quot;&gt;X_MODIFY: +1&lt;br style=&quot;font-size: 27px&quot;&gt;X_COUNT: X*Y&lt;/b&gt;&lt;/font&gt;&lt;/blockquote&gt;&lt;blockquote style=&quot;margin: 0px 0px 0px 40px ; border: none ; padding: 0px ; font-size: 27px&quot;&gt;&lt;b&gt;&lt;br style=&quot;font-size: 27px&quot;&gt;&lt;/b&gt;&lt;/blockquote&gt;&lt;font color=&quot;#0000ff&quot; style=&quot;font-size: 27px&quot;&gt;&lt;b&gt;&lt;span style=&quot;font-size: 27px&quot;&gt;&#9;&lt;/span&gt;&lt;br style=&quot;font-size: 27px&quot;&gt;&lt;/b&gt;&lt;/font&gt;&lt;span style=&quot;font-size: 27px&quot;&gt;&#9;&lt;/span&gt;" style="text;html=1;strokeColor=default;fillColor=none;spacing=5;spacingTop=-20;whiteSpace=wrap;overflow=hidden;rounded=0;sketch=0;fontSize=27;" parent="1" vertex="1">
                    <mxGeometry x="-11553.22" y="-2370" width="230" height="580" as="geometry"/>
                </mxCell>
                <mxCell id="100" value="" style="endArrow=none;dashed=1;html=1;dashPattern=1 3;strokeWidth=6;fontSize=25;" parent="1" edge="1">
                    <mxGeometry width="50" height="50" relative="1" as="geometry">
                        <mxPoint x="-10819" y="-2099.1500000000005" as="sourcePoint"/>
                        <mxPoint x="-10519" y="-2099.1500000000005" as="targetPoint"/>
                    </mxGeometry>
                </mxCell>
                <mxCell id="101" value="" style="endArrow=none;dashed=1;html=1;dashPattern=1 3;strokeWidth=6;fontSize=25;" parent="1" edge="1">
                    <mxGeometry width="50" height="50" relative="1" as="geometry">
                        <mxPoint x="-10795" y="-1452.21" as="sourcePoint"/>
                        <mxPoint x="-10555" y="-1452.1500000000005" as="targetPoint"/>
                    </mxGeometry>
                </mxCell>
                <mxCell id="102" value="" style="shape=curlyBracket;whiteSpace=wrap;html=1;rounded=1;flipH=1;sketch=0;strokeColor=default;fillColor=#FFD966;fontSize=25;strokeWidth=4;" parent="1" vertex="1">
                    <mxGeometry x="-10150" y="-1240" width="20" height="211.84" as="geometry"/>
                </mxCell>
                <mxCell id="103" value="repeat:&lt;br style=&quot;font-size: 31px&quot;&gt;F times&lt;br style=&quot;font-size: 31px&quot;&gt;if !pad&amp;nbsp;" style="text;html=1;strokeColor=none;fillColor=none;align=center;verticalAlign=middle;whiteSpace=wrap;rounded=0;sketch=0;fontSize=31;fontStyle=1" parent="1" vertex="1">
                    <mxGeometry x="-10124" y="-1138.1600000000003" width="122.54" height="20" as="geometry"/>
                </mxCell>
                <mxCell id="104" value="" style="shape=curlyBracket;whiteSpace=wrap;html=1;rounded=1;flipH=1;sketch=0;strokeColor=default;fillColor=#FFD966;fontSize=25;strokeWidth=4;" parent="1" vertex="1">
                    <mxGeometry x="-10173" y="-1837.31" width="20" height="211.84" as="geometry"/>
                </mxCell>
                <mxCell id="105" value="Repeat for each weight tile" style="text;html=1;strokeColor=none;fillColor=none;align=center;verticalAlign=middle;whiteSpace=wrap;rounded=0;sketch=0;fontSize=31;fontStyle=1" vertex="1" parent="1">
                    <mxGeometry x="-10150" y="-1743.8999999999999" width="189" height="17.31" as="geometry"/>
                </mxCell>
            </root>
        </mxGraphModel>
    </diagram>
</mxfile>